<svg id="Layer_1" data-name="Layer 1" xmlns="http://www.w3.org/2000/svg" viewBox="0 0 754.31 392"><title>joes-pedals-logo</title><path d="M205.57,137.05,220.35,145s.19-.07.22-.19a40.6,40.6,0,0,1,9.43-17.3c7.29-8.26,16.1-14.13,26.91-16.59a35.42,35.42,0,0,1,9.74-.82,19.91,19.91,0,0,1,12.68,5.59,38.24,38.24,0,0,1,9.87,14c.68,1.69,1.12,3.47,1.73,5.41l2.87-1c.3-3.35.45-6.55.9-9.71a78.68,78.68,0,0,1,7.21-23.26,18.7,18.7,0,0,1,13.53-10.48,33.09,33.09,0,0,1,18.2.93c10.31,3.6,15.1,13.58,10.5,24.18-2.35,5.42-6.2,9.65-10.69,13.34A71.39,71.39,0,0,1,317,138.88l-2.7,1.23a17.7,17.7,0,0,0,6.45,9.11,4.75,4.75,0,0,0,2.88.75,19.62,19.62,0,0,0,4.68-.93,112.74,112.74,0,0,0,27.05-12.66,42.4,42.4,0,0,0,3.91-3c2.89-2.41,6-2.61,9.36-1.56,2,.64,2.29,1.64,1.11,3.44a30.47,30.47,0,0,1-7.24,7.61,104.8,104.8,0,0,1-26.65,15A40.64,40.64,0,0,1,309.74,159c-6.56-1.91-11.24-5.93-13.71-12.37-.11-.29-.27-.57-.52-1.09l-3.22.68a14.3,14.3,0,0,0-.54,1.65c-1,5.6-4,10-7.91,14-6.48,6.46-14.5,9.88-23.32,11.45A48.81,48.81,0,0,1,236.8,172a31,31,0,0,1-8.63-4.37,123.08,123.08,0,0,0-22.73-12.55c-2.55-1.12-5.15-2.11-7.74-3.17-5.74,9.25-11.33,18.27-16.9,27.23a52.09,52.09,0,0,0-9.07-6.18,55.79,55.79,0,0,0-10.34-3.77c4.54-7.87,9.37-15.56,13.59-24-2.94-.51-5.59-1.06-8.26-1.43-10.74-1.49-21.2.08-31.55,2.9C115.64,152,98.76,162,83.66,175.32A139.73,139.73,0,0,0,67,192.57c-9.87,12.3-17.38,25.86-21.24,41.25a60.39,60.39,0,0,0-1.29,25.45c.89,5.08,2.53,9.92,6,13.9a18.29,18.29,0,0,0,2.29,2.1,6.12,6.12,0,0,0,5.63,1.2,51.65,51.65,0,0,0,12.21-4.9c8.91-4.87,16.73-11.2,24.15-18.06l1.84-1.69A.21.21,0,0,1,97,252c.14,3,.66,18.91.34,19a126.36,126.36,0,0,1-19.31,10.3,55.4,55.4,0,0,1-28.18,4c-6.88-.9-13.23-3.19-18.3-8.16a34,34,0,0,1-8.75-14.4c-3.64-11.75-2.4-23.4.77-35a112.83,112.83,0,0,1,19.5-39,148.46,148.46,0,0,1,42.49-38,150.12,150.12,0,0,1,46.6-17.83,143.84,143.84,0,0,1,41-2.55c1.44.12,2.86.32,4.29.49l4.24.49c1.65-4.09,3.33-8.05,4.85-12.08a165.69,165.69,0,0,0,6.55-20.54,91.2,91.2,0,0,0,2.22-26.41,70.35,70.35,0,0,0-5.62-24.64A29.74,29.74,0,0,0,184.38,39a3,3,0,0,0-3.61-1c-1.92.78-4,1.32-5.83,2.18a66.44,66.44,0,0,0-24.56,19.51,271,271,0,0,0-16.86,24.2,57.74,57.74,0,0,1-5.82,7.89,11.36,11.36,0,0,1-13,2.65c-3.07-1.31-4.48-3.74-4.41-7.51A30.72,30.72,0,0,1,112.74,76a90,90,0,0,1,17.68-27.74,74.38,74.38,0,0,1,39.47-22.29,56.58,56.58,0,0,1,21.92-.89c14.45,2.52,23.25,11.26,27.28,25.1A92.44,92.44,0,0,1,222.41,82a121.12,121.12,0,0,1-4.84,26.12,148.18,148.18,0,0,1-10.79,26.36C206.35,135.29,206,136.17,205.57,137.05Zm64.64,11.27c-4.65-.78-9.08-1.33-13.43-2.31-5-1.11-9.58-3.07-13.08-7a2.46,2.46,0,0,0-.86-.42c-1.5,4.76-2.25,9.48-1,14.26,1.12,4.33,3.46,7.86,7.65,9.91a6.21,6.21,0,0,0,4.65.4,24.94,24.94,0,0,0,12.54-8.4A18.66,18.66,0,0,0,270.21,148.32Zm1.4-9.24a15.77,15.77,0,0,0-1.09-6.72c-1.81-5.07-4.81-9.17-9.88-11.42-2.75-1.22-4.06-.78-5.46,1.88a10,10,0,0,0,.31,10.06C258.41,138,265.26,140.58,271.61,139.08Zm41-16.18c2.11-.7,9.29-4.3,10.58-10.88,1.65-8.43-.47-11.25-2.42-12C315.12,106.62,313.82,114.5,312.58,122.9Z"/><path d="M305,193.29c7.67-4.06,15.61-5.73,24-6.79a115.06,115.06,0,0,1,17.8-.65,91.6,91.6,0,0,1,34.32,8.48,76.42,76.42,0,0,1,23.9,17.27,62.22,62.22,0,0,1,12.31,19.26,67.58,67.58,0,0,1,3.87,12.31,53.7,53.7,0,0,1,1,15,100.09,100.09,0,0,1-1.39,10.67,70,70,0,0,1-3.12,10.28,76.45,76.45,0,0,1-4.46,9.53,81,81,0,0,1-19.37,22.86,95.44,95.44,0,0,1-24.72,14.91c-10,4.12-18.31,6.09-30.48,6.78-7.31.41-24.64-.11-25.43-.19-2.63-.27-2.72-.36-2.85-3.06-.12-2.31-.18-4.61-.29-6.92-.23-5.11-.5-10.21-.7-15.32-.29-7.5-.45-15-.79-22.5-.52-11.49-1.14-23-1.71-34.46-.35-6.93-.71-13.86-1-20.8-.41-9.88-.76-19.76-1.13-29.64-.08-2.06-.15-4.12-.22-6.26A.86.86,0,0,1,305,193.29Zm40.18,101.14a9,9,0,0,0,1.17,0,48.58,48.58,0,0,0,24.18-11.35,36.76,36.76,0,0,0,11-15.73A29.42,29.42,0,0,0,370.09,232c-8.51-5.7-17.94-7.7-28.06-6.7-.13,0-.24.18-.42.31Q343.41,259.91,345.22,294.43Z"/><path d="M237.31,299.49c.06,6.94.12,13.54.18,20.25.88,0,1.58.1,2.28.08,7.42-.2,14.85-.42,22.27-.61q15.54-.39,31.09-.77c3.57-.1,3.58-.15,3.68,3.36q.29,10.65.56,21.31c.06,2.3.2,4.61.19,6.92a31.87,31.87,0,0,1-.41,3.53c-1.8.14-3.3.34-4.8.37-6.23.14-12.46.21-18.69.35-8,.17-16,.4-24,.58-5.5.12-11,.18-16.51.32-7.42.18-14.85.45-22.27.58-2.95.05-5.9-.2-9-.32a24,24,0,0,1-.56-3.48c-.1-6.31-.11-12.62-.18-18.93,0-3-.15-6.07-.2-9.1-.13-9.19-.23-18.38-.37-27.57-.14-8.86-.34-17.71-.48-26.57-.18-10.54-.36-21.08-.48-31.62-.09-8.54-.08-17.09-.13-25.64,0-3.75-.11-7.51-.11-11.27,0-1.91.55-2.44,2.38-2.48l31.82-.68q12-.24,23.94-.44c7.91-.12,15.82-.19,23.72-.29,3,0,6.07-.07,9.1-.13,2.1,0,3.16.86,3.3,3,.18,2.87.32,5.74.4,8.61q.35,12.69.6,25.38c.05,2.19-.19,2.5-2.4,2.58-5.82.19-11.64.29-17.47.45-3.83.1-7.66.29-11.49.38-8.54.2-17.08.36-25.63.54-.3,0-.61.06-1.23.13,0,9,.35,18,.32,27.22,1.72-.14,3.11-.31,4.51-.35,5.59-.17,11.18-.3,16.77-.44,2.86-.07,5.73-.17,8.6-.2,1.78,0,2,.18,2.08,2.06.15,3.84.25,7.67.28,11.5,0,5.67,0,11.33,0,17,0,.4,0,.8,0,1.2,0,1.08-.53,1.53-1.62,1.59-4.87.28-9.72.63-14.59.93q-6.33.39-12.67.74C239.32,299.63,238.52,299.54,237.31,299.49Z"/><path d="M527,334.81c-6.9,1.85-31.67,5-37.47,4.74-5.48-14.8-9.38-30.12-15-47.13-2.6.3-7.88,1-10.45,1.42,0,0-1.42,13.42-1.77,19.08-.51,8.29-1.06,16.57-1.59,24.86a34.9,34.9,0,0,0-.19,3.82,1.94,1.94,0,0,1-1.91,2.24c-3.08.51-6.15,1.05-9.23,1.47q-10.92,1.47-21.85,2.85c-1.27.16-2.55.21-3.82.27s-1.74-.29-1.68-1.64c.1-2.24.31-4.46.49-6.69q.84-10.26,1.69-20.53,1.13-13.71,2.28-27.43c.74-8.76,1.54-17.5,2.26-26.26s1.33-17.35,2.06-26c.49-6,1.13-11.91,1.66-17.86.4-4.53.71-9.07,1.09-13.61q.51-6.33,1.09-12.66a22.19,22.19,0,0,1,.47-2.32c2.11-.36,4.21-.77,6.32-1q16.38-2.21,32.75-4.33c2.14-.28,4.29-.46,6.42-.77a1.83,1.83,0,0,1,2.28,1.53q3.7,12.14,7.44,24.27c2,6.4,4.05,12.77,6,19.18,2.35,7.79,4.57,15.63,6.93,23.42,2.68,8.86,5.49,17.68,8.18,26.53,3,10,6,20.05,9,30.06,1.87,6.19,3.83,12.35,5.71,18.54C526.5,332.06,526.68,333.39,527,334.81Zm-55.76-59.28c-1.27-5.34-2.74-11-4.05-16s-2.25-10.09-4.19-14.93c.15,10.62.3,21.23.45,31.94C466.27,276.12,468,276,471.22,275.53Z"/><path d="M99.77,181.28a3.39,3.39,0,0,1,1.79-3,68.87,68.87,0,0,1,17.77-6.51A92.46,92.46,0,0,1,143.72,170,66.67,66.67,0,0,1,168.27,176c11.81,5.31,19.14,14.61,23.11,26.67A39.7,39.7,0,0,1,193,215.88c-.25,12.74-5.11,23.71-12.46,33.8-7.87,10.82-18.09,18.87-29.81,25.08a66.42,66.42,0,0,1-13.93,5.73,9.75,9.75,0,0,0-1.14.5c0,1.66,0,3.4,0,5.14-.09,11.35-.2,22.69-.26,34,0,2.24.19,4.47.26,6.71.08,2.53-.12,2.83-2.59,2.92-6.14.21-12.29.43-18.43.45-4,0-8-.27-11.87-.43a.73.73,0,0,1-.7-.67C101.31,319.17,99.8,198.88,99.77,181.28Zm33.24,22c.71,13.47,1.41,26.66,2.11,40a.76.76,0,0,0,.92.69,11.43,11.43,0,0,0,2-.58c7.55-3.36,14.29-7.8,18.85-14.91,2.34-3.65,4.21-7.52,4.43-12,.37-7.12-2.81-11.69-8.75-14.23-6.24-2.66-12.59-1.84-19,.22A.77.77,0,0,0,133,203.24Z"/><path d="M563.06,282.39l14.55-1c6.93-.46,13.87-.87,20.79-1.35,7.09-.49,14.18-1,21.26-1.57,2.51-.2,4.21.6,4.17,3.21-.05,4,.13,8,.19,12q.12,7.18.2,14.37c0,2.57-.73,3.5-3.25,3.72-6.36.56-12.72,1-19.08,1.57-4.69.4-9.37.85-14.06,1.24s-9.54.72-14.31,1.09q-12.3,1-24.59,1.92c-4.7.35-9.4.69-14.1,1-2,.12-2.13,0-2.39-2.06-.57-4.44-1.12-8.88-1.55-13.33-.63-6.44-1.15-12.88-1.73-19.33q-1.42-16-2.86-32c-.91-10.11-1.87-20.21-2.75-30.32-.74-8.43-1.37-16.88-2.1-25.32-.76-8.84-1.58-17.67-2.37-26.5-.34-3.77-.24-3.79,3.51-4.29,4.58-.61,9.15-1.36,13.73-2q7.33-1.08,14.67-2.14c1.66-.24,2-.07,2.23,1.59.38,2.44.73,4.89.94,7.35.42,5.1.71,10.2,1.12,15.29.42,5.26,1,10.5,1.39,15.76.78,9.22,1.56,18.45,2.29,27.68.43,5.57.73,11.15,1.16,16.72.69,9.08,1.43,18.15,2.14,27.23.21,2.69.34,5.39.53,8.08A11.83,11.83,0,0,0,563.06,282.39Z"/><path d="M426.63,98.25c-1,2.19-1.9,4-2.79,5.89-6.52,13.63-13,27.28-19.6,40.86a52.87,52.87,0,0,1-7.59,11.89,7.13,7.13,0,0,1-7.73,2.46c-2-.55-3-1.74-2.78-3.86a30,30,0,0,1,1.13-5.87c2-6.24,4-12.47,6.21-18.63q4.95-13.76,10.22-27.4c1.72-4.46,3.7-8.83,5.65-13.21,2.63-5.9,7.59-8.11,13.67-8.47a24.35,24.35,0,0,1,18.83,6.86,89.15,89.15,0,0,1,15.78,19.52,55.55,55.55,0,0,1,5.82,13.11,8.36,8.36,0,0,0,.5,1c3.22-.29,6.46-.69,9.71-.85,12.46-.61,24.92-1.26,37.38-1.64,4.13-.13,12,0,16.07,1.94a2.62,2.62,0,0,1,1.31,1.75c.05.47-.72,1.27-1.29,1.49a11.78,11.78,0,0,1-3.68.92q-27.54,1.6-54.82,5.82c-.93.14-1.86.38-3,.61-.12,2-.23,4-.35,6a34.61,34.61,0,0,1-4.13,14.9c-4.47,8-10.78,14-20,16-7,1.51-13.55.27-18.82-5.1-5-5.07-5.91-10.93-2.83-17.37a27.11,27.11,0,0,1,7.56-9.18,63.74,63.74,0,0,1,15.26-9l2.05-.9C440.61,116.77,434.35,107.3,426.63,98.25Zm20.63,39.26c-5.67,2.41-10.76,4.92-14.7,9.16a25,25,0,0,0-4.16,6.08,8.71,8.71,0,0,0,3.87,11.52,5.09,5.09,0,0,0,5.44,0,17.89,17.89,0,0,0,5.65-5.09C447.91,152.68,448.2,145.41,447.26,137.51Z"/><path d="M371.33,62.77c-.05-2,.62-2.93,2.58-3.46a13.82,13.82,0,0,1,6.88.18,23.72,23.72,0,0,1,12,6.66,9.76,9.76,0,0,1,2.6,9.95c-1.73,5.63-3.82,11.16-5.94,16.67a23.21,23.21,0,0,1-3.08,5.38,11.67,11.67,0,0,1-13.24,4.21c-2.46-.76-3-1.65-2.74-4.23.52-6.28,1.51-12,1.39-18.86S371.45,66.83,371.33,62.77Z"/><path d="M686.71,206.5a29.55,29.55,0,0,0-4.49-7.07l0,0-.21-.17a36.2,36.2,0,0,0-10.26-8.06c-5.12-2.81-10.69-3.86-16.29-4.7-1.31-.28-2.63-.5-4-.65q-5.16-.59-10.32-1.05l-5-.49a60.15,60.15,0,0,1-7.94-1.17,15.69,15.69,0,0,1-2.65-1.17c-4.54-2.62-5.66-5.17-5-10.07a12.76,12.76,0,0,1,2.91-6.2,16.1,16.1,0,0,1,13.05-4.48c3.92,0,9.85,1.7,12.15,4.11a11.39,11.39,0,0,1,2.93,4.83,1.9,1.9,0,0,0,1.91,1.18c10.94-.75,22.39-.6,33.89-2.77a1.73,1.73,0,0,0,1.36-2,29,29,0,0,0-2.78-8.78,44.32,44.32,0,0,0-7.76-10.57A53.74,53.74,0,0,0,665,137.11c-5-2.72-10.36-4-15.91-5a60.81,60.81,0,0,0-30.26,2.21c-5.29,1.7-10,4.46-14.76,7.34A40.15,40.15,0,0,0,594,150.36a47.09,47.09,0,0,0-10.36,21.83,37.13,37.13,0,0,0,2.57,22.49,29.86,29.86,0,0,0,4.49,7.07l0,0,.21.17A36.35,36.35,0,0,0,601.11,210c5.12,2.81,10.7,3.86,16.3,4.7,1.31.28,2.63.5,4,.65q5.14.59,10.31,1.05l5,.49a60.15,60.15,0,0,1,7.94,1.17,16,16,0,0,1,2.65,1.17c4.53,2.62,5.65,5.17,5,10.07a12.58,12.58,0,0,1-2.91,6.2,16.07,16.07,0,0,1-13,4.48c-3.92,0-9.86-1.7-12.16-4.11a11.46,11.46,0,0,1-2.92-4.83,1.92,1.92,0,0,0-1.91-1.18c-10.94.75-22.39.6-33.89,2.77a1.72,1.72,0,0,0-1.36,2,29,29,0,0,0,2.78,8.78,44.28,44.28,0,0,0,7.75,10.57,53.54,53.54,0,0,0,13.27,10.13c5,2.72,10.36,4,15.9,5a60.8,60.8,0,0,0,30.26-2.21c5.3-1.7,10-4.45,14.77-7.34a40.11,40.11,0,0,0,10.1-8.73A47,47,0,0,0,689.28,229,37,37,0,0,0,686.71,206.5Z"/></svg>